<?xml version="1.0" standalone="no"?>
<!DOCTYPE svg PUBLIC "-//W3C//DTD SVG 20010904//EN"
 "http://www.w3.org/TR/2001/REC-SVG-20010904/DTD/svg10.dtd">
<svg version="1.0" xmlns="http://www.w3.org/2000/svg"
 width="1024.000000pt" height="1024.000000pt" viewBox="0 0 1024.000000 1024.000000"
 preserveAspectRatio="xMidYMid meet">

<g transform="translate(0.000000,1024.000000) scale(0.100000,-0.100000)"
fill="#000000" stroke="none">
<path d="M4915 8050 c-186 -19 -451 -83 -621 -150 -179 -72 -426 -213 -594
-340 -101 -77 -300 -275 -381 -380 -254 -327 -434 -755 -484 -1150 -20 -152
-20 -487 0 -627 20 -140 73 -352 120 -478 184 -493 540 -941 955 -1201 63 -40
128 -71 133 -63 1 2 0 66 -3 141 -6 158 -1 149 -135 251 -81 61 -240 209 -255
237 -7 13 24 15 250 15 142 0 262 -4 267 -8 10 -11 17 -654 7 -676 -19 -43 8
-91 51 -91 9 0 14 -4 11 -9 -8 -13 21 -35 94 -71 36 -18 77 -41 91 -51 67 -47
362 -194 421 -209 81 -21 183 -52 216 -66 18 -8 44 -14 57 -14 13 0 26 -4 30
-9 3 -5 31 -13 63 -16 31 -4 75 -12 97 -17 22 -6 58 -15 80 -21 45 -11 325
-25 325 -16 0 5 123 28 165 30 67 4 175 22 205 33 19 8 75 21 124 30 49 9 101
23 117 31 15 8 35 15 43 15 8 0 21 6 28 12 22 20 56 38 73 38 9 0 18 7 21 15
3 8 21 17 40 21 19 3 37 10 40 15 3 5 21 16 40 24 19 8 34 19 34 24 0 6 9 11
21 11 28 0 61 19 54 31 -4 5 3 9 15 9 11 0 26 5 33 10 46 39 61 50 68 50 5 0
34 26 66 57 32 32 60 58 63 59 19 3 40 18 40 29 0 7 12 23 26 36 75 70 154
154 154 165 0 7 7 17 15 22 9 4 30 29 48 54 18 26 44 64 60 85 57 79 120 178
134 210 7 18 18 33 23 33 6 0 10 7 10 15 0 8 5 15 10 15 6 0 10 6 10 14 0 7 7
19 15 26 8 6 14 15 13 18 -4 14 14 52 22 47 4 -3 6 4 3 15 -3 11 1 27 8 36 16
19 39 82 39 107 0 9 4 17 8 17 9 0 30 50 42 100 5 19 13 53 19 75 12 46 24
122 47 288 18 130 15 244 -10 415 -15 100 -21 128 -51 237 -7 28 -18 70 -25
95 -6 25 -16 59 -22 75 -5 17 -19 57 -30 90 -11 33 -24 67 -29 75 -5 8 -20 36
-33 61 -14 25 -32 51 -40 58 -9 8 -16 22 -16 33 0 11 -8 42 -17 70 -12 37 -18
47 -23 34 -3 -10 -17 31 -34 101 -91 384 -312 769 -616 1074 -174 174 -332
291 -550 407 -246 130 -458 202 -747 253 -135 24 -404 33 -548 19z m530 -289
c215 -36 443 -114 615 -208 120 -67 314 -200 400 -275 212 -186 353 -374 471
-628 26 -57 47 -105 46 -106 -1 -1 -211 -4 -466 -5 l-464 -4 -27 85 c-130 416
-517 681 -961 657 -181 -9 -371 -85 -526 -210 -181 -145 -315 -394 -339 -628
-4 -41 -8 -146 -8 -234 l-1 -160 -75 -5 -74 -5 26 -17 c15 -10 34 -18 43 -18
25 0 17 -27 -10 -34 -18 -5 -25 -13 -25 -30 0 -18 -11 -29 -50 -48 l-49 -25
-3 91 -3 91 -424 3 -423 2 5 28 c3 15 14 69 23 121 l18 94 356 -6 c195 -4 382
-3 415 2 33 5 54 9 48 10 -9 1 -13 23 -13 74 0 39 -3 96 -6 125 l-7 52 -342 0
-343 0 12 48 c15 54 67 163 101 207 12 17 32 49 43 71 12 23 28 44 36 47 8 3
25 24 36 47 11 23 27 43 35 46 7 3 25 23 39 45 15 22 75 88 134 147 199 197
439 347 735 456 117 44 351 102 462 115 125 15 402 6 540 -18z m-120 -782
c206 -63 368 -225 436 -434 22 -68 23 -84 28 -600 5 -467 -1 -1765 -7 -1595
l-3 65 -14 -33 c-8 -18 -12 -39 -9 -47 4 -10 0 -15 -11 -15 -11 0 -15 -5 -12
-14 3 -8 -2 -16 -13 -19 -11 -3 -18 0 -17 7 1 6 -5 10 -13 8 -8 -2 -21 5 -28
15 -14 17 -14 17 -8 -1 4 -13 0 -23 -14 -33 -14 -10 -19 -22 -16 -44 3 -22 1
-27 -9 -19 -9 8 -14 6 -19 -6 -4 -9 -13 -14 -21 -10 -8 3 -25 1 -37 -4 -18 -7
-19 -9 -5 -9 21 -1 23 -21 2 -21 -8 0 -15 -4 -15 -8 0 -12 -44 -10 -52 2 -4 6
-8 -1 -8 -15 0 -32 -11 -37 -65 -33 -30 2 -35 1 -20 -6 19 -8 19 -9 -2 -9 -12
-1 -24 -7 -26 -13 -4 -8 -8 -5 -12 8 -6 20 -8 21 -36 7 -16 -8 -27 -19 -24
-24 4 -5 2 -9 -3 -9 -6 0 -12 6 -15 13 -3 7 -5 368 -5 801 -1 554 -4 792 -12
800 -17 17 -159 12 -202 -7 l-38 -16 0 -773 c0 -679 2 -778 16 -818 10 -29 14
-62 11 -91 -4 -29 -1 -51 6 -59 9 -10 9 -11 -1 -5 -9 4 -15 0 -19 -14 -3 -11
-8 -19 -12 -16 -4 2 -6 -18 -5 -46 2 -44 -7 -63 -19 -41 -2 4 -2 1 -1 -6 5
-19 -7 -42 -22 -42 -20 0 -17 -20 4 -21 9 -1 -3 -6 -27 -13 -25 -6 -47 -18
-49 -26 -4 -13 -3 -13 10 -2 13 11 18 11 24 0 11 -18 13 -59 2 -52 -4 3 -6 10
-3 15 4 5 -11 9 -31 9 -42 0 -74 -23 -74 -53 0 -12 -5 -17 -14 -14 -8 3 -16 1
-18 -4 -2 -5 -13 -11 -26 -12 -29 -2 -28 -25 1 -37 18 -7 19 -9 5 -11 -10 -1
-22 -2 -27 -3 -5 0 -19 -12 -30 -25 -12 -13 -24 -21 -28 -18 -3 4 2 17 13 28
19 22 19 22 -3 10 -13 -6 -23 -16 -23 -21 0 -5 -18 -15 -40 -21 -21 -7 -37
-16 -34 -21 6 -10 -105 -2 -115 8 -3 3 -8 666 -10 1474 -4 1646 -7 1557 69
1715 64 134 190 249 340 309 123 50 323 56 455 15z m1680 -705 l70 -5 19 -92
c10 -51 20 -101 23 -112 5 -21 4 -21 -521 -21 l-526 0 0 124 0 123 433 -6
c237 -3 464 -8 502 -11z m412 -141 c-3 -10 -5 -4 -5 12 0 17 2 24 5 18 2 -7 2
-21 0 -30z m10 -65 c-3 -7 -5 -2 -5 12 0 14 2 19 5 13 2 -7 2 -19 0 -25z
m-3237 -409 l0 -128 -62 -12 c-35 -7 -57 -14 -50 -17 6 -2 12 -12 12 -23 0
-10 5 -19 10 -19 15 0 12 -30 -2 -31 -7 0 -34 -25 -60 -55 -27 -30 -48 -49
-48 -42 0 9 -3 8 -10 -2 -7 -10 -10 10 -10 66 0 45 -3 96 -6 113 l-6 31 -428
0 -427 0 -6 83 c-4 45 -7 100 -7 122 l0 40 550 1 550 1 0 -128z m2603 115
l358 -6 -3 -117 -3 -116 -455 -5 c-250 -3 -492 -3 -537 -1 l-83 4 0 129 0 130
183 -6 c100 -3 343 -9 540 -12z m-2613 -538 c0 -23 3 -78 6 -122 l7 -81 -500
1 -500 1 -26 115 c-15 63 -27 118 -27 121 0 4 234 7 520 6 l520 0 0 -41z
m2594 34 c181 0 326 -3 322 -7 -3 -4 -47 -6 -96 -4 l-90 2 0 -29 c0 -16 7 -35
15 -42 19 -15 115 -24 115 -10 0 5 -14 10 -31 10 -19 0 -28 4 -23 11 3 6 19 9
35 5 33 -6 41 15 12 34 -17 11 -17 11 0 6 10 -3 23 -6 29 -6 6 0 7 -17 4 -42
-4 -31 -3 -37 3 -23 7 14 10 15 10 5 1 -8 -6 -28 -14 -44 -8 -15 -12 -32 -9
-38 3 -5 3 -20 0 -33 l-6 -24 -373 -5 c-204 -3 -388 -6 -407 -7 -19 -1 -72 2
-117 6 l-83 8 0 120 0 120 188 -6 c103 -4 335 -7 516 -7z m214 -36 c-4 -24
-32 -39 -54 -29 -18 8 -17 9 4 12 12 3 22 11 22 19 0 8 7 14 16 14 9 0 14 -7
12 -16z m-2999 -246 c2 25 21 1 21 -26 0 -16 -8 -32 -20 -40 -19 -12 -20 -10
-19 40 0 39 3 48 9 33 5 -11 9 -14 9 -7z m193 -315 c3 -65 3 -120 1 -123 -8
-9 -376 -12 -556 -5 l-183 7 -62 103 c-34 57 -62 108 -62 114 0 7 97 12 298
14 163 1 356 3 428 5 l131 2 5 -117z m2387 105 l226 -2 -160 -6 c-226 -10
-208 -8 -194 -23 7 -7 25 -11 41 -9 33 5 36 -4 8 -28 -19 -16 -19 -18 -3 -24
10 -4 19 -2 21 3 7 22 19 10 14 -14 -3 -18 -11 -25 -28 -25 -29 0 -30 -10 -4
-38 21 -23 36 -30 25 -12 -3 6 -1 10 4 10 6 0 11 -7 11 -15 0 -11 12 -15 43
-16 23 -1 -7 -7 -68 -15 -116 -13 -351 -18 -403 -8 l-30 6 0 116 -1 115 136
-6 c75 -4 238 -8 362 -9z m334 -15 c-13 -2 -33 -2 -45 0 -13 2 -3 4 22 4 25 0
35 -2 23 -4z m-393 -133 c0 -5 -4 -10 -10 -10 -5 0 -10 5 -10 10 0 6 5 10 10
10 6 0 10 -4 10 -10z m285 -60 c4 -6 -17 -10 -57 -9 -54 1 -58 3 -28 9 53 11
78 11 85 0z m-627 -277 l-88 -4 -3 -207 -2 -207 -3 213 -2 212 93 -2 92 -2
-87 -3z m-483 -13 c3 -5 -3 -10 -15 -10 -12 0 -18 5 -15 10 3 6 10 10 15 10 5
0 12 -4 15 -10z m1145 -164 c0 -2 -8 -10 -17 -17 -16 -13 -17 -12 -4 4 13 16
21 21 21 13z m-1400 -36 c0 -5 -4 -10 -10 -10 -5 0 -10 5 -10 10 0 6 5 10 10
10 6 0 10 -4 10 -10z m1360 -3 c0 -1 -24 -25 -52 -52 l-53 -50 50 53 c46 48
55 57 55 49z m-713 -369 c-2 -24 -4 -7 -4 37 0 44 2 63 4 43 2 -21 2 -57 0
-80z m-1217 -68 c0 -5 -5 -10 -11 -10 -5 0 -7 5 -4 10 3 6 8 10 11 10 2 0 4
-4 4 -10z m1335 -10 c-3 -5 -12 -10 -18 -10 -7 0 -6 4 3 10 19 12 23 12 15 0z
m-1315 -14 c0 -3 -4 -8 -10 -11 -5 -3 -10 -1 -10 4 0 6 5 11 10 11 6 0 10 -2
10 -4z m1260 -10 c0 -2 -7 -7 -16 -10 -8 -3 -12 -2 -9 4 6 10 25 14 25 6z
m-55 -26 c-3 -5 -11 -10 -16 -10 -6 0 -7 5 -4 10 3 6 11 10 16 10 6 0 7 -4 4
-10z m-1290 -20 c3 -5 1 -10 -4 -10 -6 0 -11 5 -11 10 0 6 2 10 4 10 3 0 8 -4
11 -10z m2 -166 c-3 -3 -12 -4 -19 -1 -8 3 -5 6 6 6 11 1 17 -2 13 -5z m56
-11 c-7 -2 -21 -2 -30 0 -10 3 -4 5 12 5 17 0 24 -2 18 -5z m585 0 c-10 -2
-26 -2 -35 0 -10 3 -2 5 17 5 19 0 27 -2 18 -5z m-95 -10 c-13 -2 -35 -2 -50
0 -16 2 -5 4 22 4 28 0 40 -2 28 -4z m-190 -10 c-13 -2 -35 -2 -50 0 -16 2 -5
4 22 4 28 0 40 -2 28 -4z"/>
<path d="M5059 6504 c-54 -16 -130 -80 -153 -128 -32 -68 -15 -179 37 -234 56
-60 135 -80 232 -57 137 31 195 90 195 197 0 110 -63 190 -176 224 -57 17 -75
17 -135 -2z"/>
<path d="M5442 5584 c-26 -22 -46 -50 -53 -74 -11 -35 -9 -43 14 -83 17 -28
41 -52 70 -67 58 -31 103 -22 157 29 52 49 55 97 10 159 -58 81 -130 94 -198
36z"/>
<path d="M4880 2597 l0 -67 78 6 79 7 6 -48 c4 -26 7 -110 7 -185 0 -75 3
-158 6 -184 l7 -46 57 0 57 0 -5 228 -5 228 90 -4 90 -4 6 62 c4 35 6 65 4 66
-1 2 -109 4 -240 6 l-237 3 0 -68z"/>
<path d="M3112 2368 c3 -158 6 -289 9 -290 2 -2 100 -2 217 0 l212 3 0 66 0
66 -155 -5 c-132 -4 -155 -3 -150 9 3 8 5 30 5 49 l0 33 123 3 122 3 3 61 3
61 -128 -5 -128 -4 3 55 4 56 146 3 147 3 3 62 4 63 -223 -2 -222 -1 5 -289z"/>
<path d="M4003 2518 c4 -79 7 -209 7 -290 l0 -148 63 0 62 0 -3 117 c-2 65 1
135 5 156 l8 39 112 -129 c140 -161 150 -170 196 -178 l37 -7 0 275 c0 151 3
282 6 291 5 13 -3 16 -50 16 l-56 0 0 -50 c0 -60 -20 -248 -29 -272 -5 -13
-17 1 -51 59 -26 43 -84 116 -135 170 -87 90 -91 93 -134 93 l-44 0 6 -142z"/>
<path d="M5773 2473 c4 -104 7 -234 7 -290 l0 -103 65 0 65 0 0 79 0 80 45 7
c25 3 47 5 48 3 2 -2 14 -20 28 -39 14 -19 38 -57 52 -84 l26 -49 78 2 c43 1
79 4 81 6 2 1 -22 40 -54 86 -48 71 -54 84 -41 94 25 18 97 163 96 193 -1 45
-22 90 -62 131 -58 60 -104 71 -285 71 l-155 0 6 -187z m302 47 c39 -20 60
-59 51 -94 -9 -38 -58 -56 -151 -56 l-75 0 0 83 0 82 73 0 c44 0 84 -6 102
-15z"/>
<path d="M6651 2603 c18 -32 63 -105 100 -163 37 -58 73 -118 78 -133 6 -16
11 -73 11 -128 l0 -99 72 0 71 0 -6 106 -6 105 36 67 c20 37 46 78 58 92 13
14 32 43 43 65 11 22 30 49 42 60 19 17 50 66 50 79 0 2 -31 4 -68 3 l-69 -1
-78 -119 -79 -119 -25 49 c-14 28 -46 82 -71 121 l-45 71 -73 1 -73 0 32 -57z"/>
</g>
</svg>
